<svg width="121" height="23" viewBox="0 0 121 23" fill="none" xmlns="http://www.w3.org/2000/svg">
<path d="M99.6567 0.5H108.032V2.55H105.032V11H102.632V2.55H99.6567V0.5ZM109.357 0.5H112.082L115.107 6.85L118.132 0.5H120.857V11H118.682V4.025L115.907 9.95H114.307L111.557 4.025V11H109.357V0.5Z" fill="white"/>
<path d="M81.2535 0.5H93.3285L93.3035 3.425H84.6035V8.15H92.5285V11.075H84.6035V18H81.2535V0.5Z" fill="white"/>
<path d="M66.6783 0.5H78.7533L78.7283 3.425H70.0283V8.15H77.9533V11.075H70.0283V18H66.6783V0.5Z" fill="white"/>
<path d="M54.4135 0.275024C56.1468 0.275024 57.7218 0.666691 59.1385 1.45002C60.5718 2.23336 61.6968 3.30836 62.5135 4.67502C63.3302 6.04169 63.7385 7.55836 63.7385 9.22503C63.7385 10.8917 63.3302 12.4167 62.5135 13.8C61.6968 15.1667 60.5718 16.25 59.1385 17.05C57.7218 17.85 56.1468 18.25 54.4135 18.25C52.6802 18.25 51.0968 17.85 49.6635 17.05C48.2468 16.25 47.1302 15.1667 46.3135 13.8C45.4968 12.4167 45.0885 10.8917 45.0885 9.22503C45.0885 7.55836 45.4968 6.04169 46.3135 4.67502C47.1302 3.30836 48.2468 2.23336 49.6635 1.45002C51.0968 0.666691 52.6802 0.275024 54.4135 0.275024ZM54.4635 3.27502C53.3968 3.27502 52.4052 3.54169 51.4885 4.07502C50.5718 4.59169 49.8468 5.30836 49.3135 6.22503C48.7802 7.12503 48.5135 8.12502 48.5135 9.22503C48.5135 10.325 48.7802 11.3334 49.3135 12.25C49.8635 13.1667 50.5885 13.8917 51.4885 14.425C52.4052 14.9584 53.3968 15.225 54.4635 15.225C55.5135 15.225 56.4885 14.9584 57.3885 14.425C58.2885 13.8917 58.9968 13.1667 59.5135 12.25C60.0468 11.3334 60.3135 10.325 60.3135 9.22503C60.3135 8.12502 60.0468 7.12503 59.5135 6.22503C58.9968 5.30836 58.2885 4.59169 57.3885 4.07502C56.4885 3.54169 55.5135 3.27502 54.4635 3.27502Z" fill="white"/>
<path d="M42.5235 4.62502V16.725C42.5235 17.9917 42.2318 19.0917 41.6485 20.025C41.0818 20.975 40.2652 21.7 39.1985 22.2C38.1485 22.7167 36.9235 22.975 35.5235 22.975C33.4902 22.975 31.6068 22.3834 29.8735 21.2L31.1735 18.85C32.4402 19.7834 33.8318 20.25 35.3485 20.25C36.5485 20.25 37.4985 19.9417 38.1985 19.325C38.9152 18.7084 39.2735 17.8667 39.2735 16.8V15.225C38.8235 15.9084 38.2402 16.4334 37.5235 16.8C36.8068 17.15 35.9735 17.325 35.0235 17.325C33.8568 17.325 32.8235 17.0584 31.9235 16.525C31.0235 15.975 30.3235 15.2167 29.8235 14.25C29.3235 13.2667 29.0735 12.1417 29.0735 10.875C29.0735 9.62502 29.3235 8.52503 29.8235 7.57503C30.3235 6.60836 31.0235 5.85836 31.9235 5.32502C32.8235 4.79169 33.8568 4.52502 35.0235 4.52502C35.9568 4.52502 36.7818 4.70836 37.4985 5.07502C38.2318 5.44169 38.8235 5.95836 39.2735 6.62503V4.62502H42.5235ZM35.7235 14.775C36.7735 14.775 37.6235 14.425 38.2735 13.725C38.9402 13.0084 39.2735 12.0834 39.2735 10.95C39.2735 9.81669 38.9402 8.90003 38.2735 8.20003C37.6235 7.48336 36.7735 7.12502 35.7235 7.12502C34.6735 7.12502 33.8152 7.48336 33.1485 8.20003C32.4985 8.91669 32.1652 9.83336 32.1485 10.95C32.1652 12.0834 32.4985 13.0084 33.1485 13.725C33.8152 14.425 34.6735 14.775 35.7235 14.775Z" fill="white"/>
<path d="M20.4502 4.52502C21.8336 4.52502 23.0502 4.80836 24.1002 5.37503C25.1669 5.94169 25.9919 6.74169 26.5752 7.77502C27.1752 8.79169 27.4752 9.96669 27.4752 11.3C27.4752 12.65 27.1752 13.8417 26.5752 14.875C25.9919 15.9084 25.1669 16.7084 24.1002 17.275C23.0502 17.8417 21.8336 18.125 20.4502 18.125C19.0502 18.125 17.8169 17.8417 16.7502 17.275C15.6836 16.7084 14.8502 15.9084 14.2502 14.875C13.6669 13.8417 13.3752 12.65 13.3752 11.3C13.3752 9.96669 13.6669 8.79169 14.2502 7.77502C14.8502 6.74169 15.6836 5.94169 16.7502 5.37503C17.8169 4.80836 19.0502 4.52502 20.4502 4.52502ZM20.4502 7.30002C19.3169 7.30002 18.4002 7.67502 17.7002 8.42502C17.0002 9.17502 16.6502 10.15 16.6502 11.35C16.6502 12.55 17.0002 13.525 17.7002 14.275C18.4002 15.025 19.3169 15.4 20.4502 15.4C21.5502 15.4 22.4502 15.025 23.1502 14.275C23.8502 13.525 24.2002 12.55 24.2002 11.35C24.2002 10.15 23.8502 9.17502 23.1502 8.42502C22.4502 7.67502 21.5502 7.30002 20.4502 7.30002Z" fill="white"/>
<path d="M0.150024 0.5H12.225L12.2 3.425H3.50002V8.15H11.425V11.075H3.50002V18H0.150024V0.5Z" fill="white"/>
</svg>
